# xmcd CD database file
#
# Track frame offsets:
#	150
#	16237
#	35335
#	47892
#	64260
#	77120
#	89822
#	104682
#	118012
#	136887
#	150422
#	164015
#	180870
#	195672
#	210607
#	219580
#	230057
#	243310
#	263132
#	276342
#	288210
#	305850
#	320602
#	332650
#
# Disc length: 4589 seconds
#
# Revision: 0
# Processed by: cddbd v1.4PL0 Copyright (c) Steve Scherf et al.
# Submitted via: CDex 1.40Release
#
DISCID=6811eb18
DTITLE=Ray Charles - The Golden Collection of Ray Charles
DYEAR=1900
DGENRE=Blues
TTITLE0=Your Cheatin Heart
TTITLE1=I Can't Stop Loving You
TTITLE2=Yesterday
TTITLE3=Georgia On My Mind
TTITLE4=Unchain My Heart
TTITLE5=My Heart Cries For You
TTITLE6=You Don't Know Me
TTITLE7=Crying Time
TTITLE8=Baby It's Cold Outside
TTITLE9=You Are My Sunshine
TTITLE10=Eleanor Rigby
TTITLE11=Look What They Done To My Song, Ma
TTITLE12=Born To Lose
TTITLE13=Here We Go Again
TTITLE14=Hit The Road Jack
TTITLE15=I'll Never Stand In Your Way
TTITLE16=Take These Chains From My Heart
TTITLE17=That Lucky Old Sun
TTITLE18=Let's Go Get Stoned
TTITLE19=Don't Set Me Free
TTITLE20=Careless Love
TTITLE21=Hang Your Head In Shame
TTITLE22=Together Again
TTITLE23=In The Heat Of The Night
EXTD=ID3G: 0
EXTT0=
EXTT1=
EXTT2=
EXTT3=
EXTT4=
EXTT5=
EXTT6=
EXTT7=
EXTT8=
EXTT9=
EXTT10=
EXTT11=
EXTT12=
EXTT13=
EXTT14=
EXTT15=
EXTT16=
EXTT17=
EXTT18=
EXTT19=
EXTT20=
EXTT21=
EXTT22=
EXTT23=
PLAYORDER=
